<mxfile host="app.diagrams.net" modified="2024-04-23T13:48:30.716Z" agent="Mozilla/5.0 (Windows NT 10.0; Win64; x64) AppleWebKit/537.36 (KHTML, like Gecko) Chrome/123.0.0.0 Safari/537.36" etag="GwI0OXZkqfYnU9nUtZYx" version="24.2.7" type="github">
  <diagram name="Página-1" id="Y6LA2qtBjT1_gCVzoC9d">
    <mxGraphModel dx="1195" dy="657" grid="1" gridSize="10" guides="1" tooltips="1" connect="1" arrows="1" fold="1" page="1" pageScale="1" pageWidth="827" pageHeight="1169" math="0" shadow="0">
      <root>
        <mxCell id="0" />
        <mxCell id="1" parent="0" />
        <mxCell id="UiYkr7qpv9_1AyH926lY-4" value="" style="edgeStyle=orthogonalEdgeStyle;rounded=0;orthogonalLoop=1;jettySize=auto;html=1;endArrow=none;endFill=0;" edge="1" parent="1" source="UiYkr7qpv9_1AyH926lY-1" target="UiYkr7qpv9_1AyH926lY-3">
          <mxGeometry relative="1" as="geometry" />
        </mxCell>
        <mxCell id="UiYkr7qpv9_1AyH926lY-1" value="user" style="rounded=1;whiteSpace=wrap;html=1;" vertex="1" parent="1">
          <mxGeometry x="210" y="230" width="120" height="60" as="geometry" />
        </mxCell>
        <mxCell id="UiYkr7qpv9_1AyH926lY-10" value="" style="edgeStyle=orthogonalEdgeStyle;rounded=0;orthogonalLoop=1;jettySize=auto;html=1;endArrow=none;endFill=0;" edge="1" parent="1" source="UiYkr7qpv9_1AyH926lY-2" target="UiYkr7qpv9_1AyH926lY-9">
          <mxGeometry relative="1" as="geometry" />
        </mxCell>
        <mxCell id="UiYkr7qpv9_1AyH926lY-2" value="carrinho" style="rounded=1;whiteSpace=wrap;html=1;" vertex="1" parent="1">
          <mxGeometry x="500" y="230" width="120" height="60" as="geometry" />
        </mxCell>
        <mxCell id="UiYkr7qpv9_1AyH926lY-5" value="" style="edgeStyle=orthogonalEdgeStyle;rounded=0;orthogonalLoop=1;jettySize=auto;html=1;endArrow=none;endFill=0;" edge="1" parent="1" source="UiYkr7qpv9_1AyH926lY-3" target="UiYkr7qpv9_1AyH926lY-2">
          <mxGeometry relative="1" as="geometry" />
        </mxCell>
        <mxCell id="UiYkr7qpv9_1AyH926lY-3" value="possui" style="rhombus;whiteSpace=wrap;html=1;" vertex="1" parent="1">
          <mxGeometry x="374" y="220" width="80" height="80" as="geometry" />
        </mxCell>
        <mxCell id="UiYkr7qpv9_1AyH926lY-6" value="1" style="text;strokeColor=none;align=center;fillColor=none;html=1;verticalAlign=middle;whiteSpace=wrap;rounded=0;" vertex="1" parent="1">
          <mxGeometry x="330" y="230" width="60" height="30" as="geometry" />
        </mxCell>
        <mxCell id="UiYkr7qpv9_1AyH926lY-8" value="1" style="text;strokeColor=none;align=center;fillColor=none;html=1;verticalAlign=middle;whiteSpace=wrap;rounded=0;" vertex="1" parent="1">
          <mxGeometry x="430" y="230" width="60" height="30" as="geometry" />
        </mxCell>
        <mxCell id="UiYkr7qpv9_1AyH926lY-9" value="possui" style="rhombus;whiteSpace=wrap;html=1;" vertex="1" parent="1">
          <mxGeometry x="520" y="310" width="80" height="80" as="geometry" />
        </mxCell>
        <mxCell id="UiYkr7qpv9_1AyH926lY-12" value="" style="edgeStyle=orthogonalEdgeStyle;rounded=0;orthogonalLoop=1;jettySize=auto;html=1;endArrow=none;endFill=0;" edge="1" parent="1" source="UiYkr7qpv9_1AyH926lY-11" target="UiYkr7qpv9_1AyH926lY-9">
          <mxGeometry relative="1" as="geometry" />
        </mxCell>
        <mxCell id="UiYkr7qpv9_1AyH926lY-11" value="produtos" style="rounded=1;whiteSpace=wrap;html=1;" vertex="1" parent="1">
          <mxGeometry x="500" y="420" width="120" height="60" as="geometry" />
        </mxCell>
        <mxCell id="UiYkr7qpv9_1AyH926lY-13" value="1" style="text;strokeColor=none;align=center;fillColor=none;html=1;verticalAlign=middle;whiteSpace=wrap;rounded=0;" vertex="1" parent="1">
          <mxGeometry x="570" y="290" width="60" height="30" as="geometry" />
        </mxCell>
        <mxCell id="UiYkr7qpv9_1AyH926lY-14" value="n" style="text;strokeColor=none;align=center;fillColor=none;html=1;verticalAlign=middle;whiteSpace=wrap;rounded=0;" vertex="1" parent="1">
          <mxGeometry x="570" y="390" width="60" height="30" as="geometry" />
        </mxCell>
        <mxCell id="UiYkr7qpv9_1AyH926lY-17" value="" style="curved=1;endArrow=classic;html=1;rounded=0;" edge="1" parent="1">
          <mxGeometry width="50" height="50" relative="1" as="geometry">
            <mxPoint x="610" y="350" as="sourcePoint" />
            <mxPoint x="660" y="300" as="targetPoint" />
            <Array as="points">
              <mxPoint x="660" y="350" />
              <mxPoint x="610" y="300" />
            </Array>
          </mxGeometry>
        </mxCell>
        <mxCell id="UiYkr7qpv9_1AyH926lY-18" value="ProductInCart" style="text;strokeColor=none;align=center;fillColor=none;html=1;verticalAlign=middle;whiteSpace=wrap;rounded=0;" vertex="1" parent="1">
          <mxGeometry x="670" y="280" width="60" height="30" as="geometry" />
        </mxCell>
        <mxCell id="UiYkr7qpv9_1AyH926lY-21" value="" style="edgeStyle=orthogonalEdgeStyle;rounded=0;orthogonalLoop=1;jettySize=auto;html=1;" edge="1" parent="1" source="UiYkr7qpv9_1AyH926lY-19" target="UiYkr7qpv9_1AyH926lY-20">
          <mxGeometry relative="1" as="geometry" />
        </mxCell>
        <mxCell id="UiYkr7qpv9_1AyH926lY-19" value="usuario nao autenticado coloca coisas no carrinho" style="ellipse;whiteSpace=wrap;html=1;" vertex="1" parent="1">
          <mxGeometry x="70" y="600" width="120" height="80" as="geometry" />
        </mxCell>
        <mxCell id="UiYkr7qpv9_1AyH926lY-23" value="" style="edgeStyle=orthogonalEdgeStyle;rounded=0;orthogonalLoop=1;jettySize=auto;html=1;" edge="1" parent="1" source="UiYkr7qpv9_1AyH926lY-20" target="UiYkr7qpv9_1AyH926lY-22">
          <mxGeometry relative="1" as="geometry" />
        </mxCell>
        <mxCell id="UiYkr7qpv9_1AyH926lY-20" value="clica em comprar e é redirecionado para login" style="ellipse;whiteSpace=wrap;html=1;" vertex="1" parent="1">
          <mxGeometry x="270" y="600" width="120" height="80" as="geometry" />
        </mxCell>
        <mxCell id="UiYkr7qpv9_1AyH926lY-22" value="sistema coloca dados nao autenticados no banco (adiciona ao que ja existe)" style="ellipse;whiteSpace=wrap;html=1;" vertex="1" parent="1">
          <mxGeometry x="490" y="600" width="160" height="80" as="geometry" />
        </mxCell>
        <mxCell id="UiYkr7qpv9_1AyH926lY-26" value="" style="edgeStyle=orthogonalEdgeStyle;rounded=0;orthogonalLoop=1;jettySize=auto;html=1;" edge="1" parent="1" source="UiYkr7qpv9_1AyH926lY-24" target="UiYkr7qpv9_1AyH926lY-25">
          <mxGeometry relative="1" as="geometry" />
        </mxCell>
        <mxCell id="UiYkr7qpv9_1AyH926lY-24" value="usuario autenticado coloca coisas no carrinho" style="ellipse;whiteSpace=wrap;html=1;" vertex="1" parent="1">
          <mxGeometry x="70" y="710" width="120" height="80" as="geometry" />
        </mxCell>
        <mxCell id="UiYkr7qpv9_1AyH926lY-25" value="nem chega a mexer com sessão, apenas salva no banco de dados" style="ellipse;whiteSpace=wrap;html=1;" vertex="1" parent="1">
          <mxGeometry x="270" y="710" width="120" height="80" as="geometry" />
        </mxCell>
        <mxCell id="UiYkr7qpv9_1AyH926lY-29" value="" style="edgeStyle=orthogonalEdgeStyle;rounded=0;orthogonalLoop=1;jettySize=auto;html=1;" edge="1" parent="1" source="UiYkr7qpv9_1AyH926lY-27" target="UiYkr7qpv9_1AyH926lY-28">
          <mxGeometry relative="1" as="geometry" />
        </mxCell>
        <mxCell id="UiYkr7qpv9_1AyH926lY-27" value="usuario nao autenticado faz login sem botar nada no carrinho" style="ellipse;whiteSpace=wrap;html=1;" vertex="1" parent="1">
          <mxGeometry x="70" y="820" width="120" height="80" as="geometry" />
        </mxCell>
        <mxCell id="UiYkr7qpv9_1AyH926lY-28" value="sistema adiciona um nada no banco" style="ellipse;whiteSpace=wrap;html=1;" vertex="1" parent="1">
          <mxGeometry x="270" y="820" width="120" height="80" as="geometry" />
        </mxCell>
      </root>
    </mxGraphModel>
  </diagram>
</mxfile>
